<svg width="49" height="49" viewBox="0 0 49 49" fill="none" xmlns="http://www.w3.org/2000/svg">
<path d="M22.4685 4.08334L37.3686 8.73834C37.7842 8.86807 38.1474 9.12724 38.4052 9.47801C38.6631 9.82878 38.802 10.2528 38.8019 10.6881V14.2917H42.8852C43.4267 14.2917 43.946 14.5068 44.3289 14.8897C44.7118 15.2725 44.9269 15.7919 44.9269 16.3333V32.6667C44.9269 33.2082 44.7118 33.7275 44.3289 34.1103C43.946 34.4932 43.4267 34.7083 42.8852 34.7083L36.311 34.7104C35.5209 35.7516 34.5613 36.6704 33.4527 37.4258L22.4685 44.9167L11.4844 37.4278C9.83576 36.3038 8.48669 34.7941 7.55444 33.0299C6.62219 31.2658 6.13499 29.3006 6.13519 27.3053V10.6881C6.13544 10.2531 6.27461 9.82959 6.53242 9.47923C6.79024 9.12887 7.15321 8.87001 7.56844 8.74038L22.4685 4.08334ZM22.4685 8.35859L10.2185 12.1888V27.3053C10.2182 28.5552 10.5049 29.7886 11.0564 30.9103C11.6078 32.032 12.4095 33.0122 13.3994 33.7753L13.7853 34.053L22.4685 39.9738L30.1901 34.7083H20.4269C19.8854 34.7083 19.3661 34.4932 18.9832 34.1103C18.6003 33.7275 18.3852 33.2082 18.3852 32.6667V16.3333C18.3852 15.7919 18.6003 15.2725 18.9832 14.8897C19.3661 14.5068 19.8854 14.2917 20.4269 14.2917H34.7185V12.1888L22.4685 8.35859ZM22.4685 24.5V30.625H40.8435V24.5H22.4685ZM22.4685 20.4167H40.8435V18.375H22.4685V20.4167Z" fill="black"/>
</svg>
